<?xml version="1.0" encoding="UTF-8" standalone="no"?>
<!DOCTYPE svg PUBLIC "-//W3C//DTD SVG 1.1//EN"
 "http://www.w3.org/Graphics/SVG/1.1/DTD/svg11.dtd">
<!-- Generated by graphviz version 2.43.0 (0)
 -->
<!-- Title: rectangle_ornament Pages: 1 -->
<svg width="341pt" height="28pt"
 viewBox="0.00 0.00 341.00 28.00" xmlns="http://www.w3.org/2000/svg" xmlns:xlink="http://www.w3.org/1999/xlink">
<g id="graph0" class="graph" transform="scale(1 1) rotate(0) translate(4 24)">
<title>rectangle_ornament</title>
<polygon fill="white" stroke="transparent" points="-4,4 -4,-24 337,-24 337,4 -4,4"/>
<!-- Node1 -->
<g id="node1" class="node">
<title>Node1</title>
<g id="a_node1"><a xlink:title="Draws rectangle ornaments on the image.">
<polygon fill="#bfbfbf" stroke="black" points="0,-0.5 0,-19.5 115,-19.5 115,-0.5 0,-0.5"/>
<text text-anchor="middle" x="57.5" y="-7.5" font-family="Helvetica,sans-Serif" font-size="10.00">rectangle_ornament</text>
</a>
</g>
</g>
<!-- Node2 -->
<g id="node2" class="node">
<title>Node2</title>
<g id="a_node2"><a xlink:href="drawing__handler_8c.html#ab00e9a7968a0cc509da7053cba9cbd76" target="_top" xlink:title="Draws a border around the specified rectangle in the image.">
<polygon fill="white" stroke="black" points="151,-0.5 151,-19.5 228,-19.5 228,-0.5 151,-0.5"/>
<text text-anchor="middle" x="189.5" y="-7.5" font-family="Helvetica,sans-Serif" font-size="10.00">draw_border</text>
</a>
</g>
</g>
<!-- Node1&#45;&gt;Node2 -->
<g id="edge1" class="edge">
<title>Node1&#45;&gt;Node2</title>
<path fill="none" stroke="midnightblue" d="M115.14,-10C123.61,-10 132.27,-10 140.53,-10"/>
<polygon fill="midnightblue" stroke="midnightblue" points="140.75,-13.5 150.75,-10 140.75,-6.5 140.75,-13.5"/>
</g>
<!-- Node3 -->
<g id="node3" class="node">
<title>Node3</title>
<g id="a_node3"><a xlink:href="drawing__handler_8c.html#a8ea4fa7547fe4a58da4df99aaf430c7c" target="_top" xlink:title="Draws a single pixel with the specified color values.">
<polygon fill="white" stroke="black" points="264,-0.5 264,-19.5 333,-19.5 333,-0.5 264,-0.5"/>
<text text-anchor="middle" x="298.5" y="-7.5" font-family="Helvetica,sans-Serif" font-size="10.00">draw_pixel</text>
</a>
</g>
</g>
<!-- Node2&#45;&gt;Node3 -->
<g id="edge2" class="edge">
<title>Node2&#45;&gt;Node3</title>
<path fill="none" stroke="midnightblue" d="M228.22,-10C236.44,-10 245.19,-10 253.62,-10"/>
<polygon fill="midnightblue" stroke="midnightblue" points="253.68,-13.5 263.68,-10 253.68,-6.5 253.68,-13.5"/>
</g>
</g>
</svg>
