<?xml version="1.0" encoding="UTF-8" standalone="no"?>
<!DOCTYPE svg PUBLIC "-//W3C//DTD SVG 1.1//EN"
 "http://www.w3.org/Graphics/SVG/1.1/DTD/svg11.dtd">
<!-- Generated by graphviz version 2.43.0 (0)
 -->
<!-- Title: rectangle_ornament Pages: 1 -->
<svg width="420pt" height="28pt"
 viewBox="0.00 0.00 420.00 28.00" xmlns="http://www.w3.org/2000/svg" xmlns:xlink="http://www.w3.org/1999/xlink">
<g id="graph0" class="graph" transform="scale(1 1) rotate(0) translate(4 24)">
<title>rectangle_ornament</title>
<polygon fill="white" stroke="transparent" points="-4,4 -4,-24 416,-24 416,4 -4,4"/>
<!-- Node1 -->
<g id="node1" class="node">
<title>Node1</title>
<g id="a_node1"><a xlink:title="Draws rectangle ornaments on the image.">
<polygon fill="#bfbfbf" stroke="black" points="297,-0.5 297,-19.5 412,-19.5 412,-0.5 297,-0.5"/>
<text text-anchor="middle" x="354.5" y="-7.5" font-family="Helvetica,sans-Serif" font-size="10.00">rectangle_ornament</text>
</a>
</g>
</g>
<!-- Node2 -->
<g id="node2" class="node">
<title>Node2</title>
<g id="a_node2"><a xlink:href="task__handler_8c.html#a4036aae53bb53c722b7a288b0a63d7ac" target="_top" xlink:title="Draws an ornament pattern on the given image.">
<polygon fill="white" stroke="black" points="197,-0.5 197,-19.5 261,-19.5 261,-0.5 197,-0.5"/>
<text text-anchor="middle" x="229" y="-7.5" font-family="Helvetica,sans-Serif" font-size="10.00">ornament</text>
</a>
</g>
</g>
<!-- Node1&#45;&gt;Node2 -->
<g id="edge1" class="edge">
<title>Node1&#45;&gt;Node2</title>
<path fill="none" stroke="midnightblue" d="M286.7,-10C277.76,-10 268.97,-10 261.07,-10"/>
<polygon fill="midnightblue" stroke="midnightblue" points="286.81,-13.5 296.81,-10 286.81,-6.5 286.81,-13.5"/>
</g>
<!-- Node3 -->
<g id="node3" class="node">
<title>Node3</title>
<g id="a_node3"><a xlink:href="task__handler_8c.html#a4341cea57facc9429ec9f8390e11d8be" target="_top" xlink:title="Handles task switching based on provided options.">
<polygon fill="white" stroke="black" points="77,-0.5 77,-19.5 161,-19.5 161,-0.5 77,-0.5"/>
<text text-anchor="middle" x="119" y="-7.5" font-family="Helvetica,sans-Serif" font-size="10.00">task_switcher</text>
</a>
</g>
</g>
<!-- Node2&#45;&gt;Node3 -->
<g id="edge2" class="edge">
<title>Node2&#45;&gt;Node3</title>
<path fill="none" stroke="midnightblue" d="M186.53,-10C178.23,-10 169.52,-10 161.22,-10"/>
<polygon fill="midnightblue" stroke="midnightblue" points="186.76,-13.5 196.76,-10 186.76,-6.5 186.76,-13.5"/>
</g>
<!-- Node4 -->
<g id="node4" class="node">
<title>Node4</title>
<g id="a_node4"><a xlink:href="main_8c.html#a0ddf1224851353fc92bfbff6f499fa97" target="_top" xlink:title="Main function to handle command&#45;line arguments and process image tasks.">
<polygon fill="white" stroke="black" points="0,-0.5 0,-19.5 41,-19.5 41,-0.5 0,-0.5"/>
<text text-anchor="middle" x="20.5" y="-7.5" font-family="Helvetica,sans-Serif" font-size="10.00">main</text>
</a>
</g>
</g>
<!-- Node3&#45;&gt;Node4 -->
<g id="edge3" class="edge">
<title>Node3&#45;&gt;Node4</title>
<path fill="none" stroke="midnightblue" d="M66.55,-10C57.48,-10 48.55,-10 41.07,-10"/>
<polygon fill="midnightblue" stroke="midnightblue" points="66.8,-13.5 76.8,-10 66.8,-6.5 66.8,-13.5"/>
</g>
</g>
</svg>
