<?xml version="1.0" encoding="UTF-8" standalone="no"?>
<!DOCTYPE svg PUBLIC "-//W3C//DTD SVG 1.1//EN"
 "http://www.w3.org/Graphics/SVG/1.1/DTD/svg11.dtd">
<!-- Generated by graphviz version 2.43.0 (0)
 -->
<!-- Title: draw_border Pages: 1 -->
<svg width="539pt" height="66pt"
 viewBox="0.00 0.00 539.00 66.00" xmlns="http://www.w3.org/2000/svg" xmlns:xlink="http://www.w3.org/1999/xlink">
<g id="graph0" class="graph" transform="scale(1 1) rotate(0) translate(4 62)">
<title>draw_border</title>
<polygon fill="white" stroke="transparent" points="-4,4 -4,-62 535,-62 535,4 -4,4"/>
<!-- Node1 -->
<g id="node1" class="node">
<title>Node1</title>
<g id="a_node1"><a xlink:title="Draws a border around the specified rectangle in the image.">
<polygon fill="#bfbfbf" stroke="black" points="454,-19.5 454,-38.5 531,-38.5 531,-19.5 454,-19.5"/>
<text text-anchor="middle" x="492.5" y="-26.5" font-family="Helvetica,sans-Serif" font-size="10.00">draw_border</text>
</a>
</g>
</g>
<!-- Node2 -->
<g id="node2" class="node">
<title>Node2</title>
<g id="a_node2"><a xlink:href="task__handler_8c.html#ac49a2b5090f3e5a87b40d45bd968c325" target="_top" xlink:title="Finds all filled rectangles in the image and draws borders around them.">
<polygon fill="white" stroke="black" points="197,-38.5 197,-57.5 267,-57.5 267,-38.5 197,-38.5"/>
<text text-anchor="middle" x="232" y="-45.5" font-family="Helvetica,sans-Serif" font-size="10.00">filled_rects</text>
</a>
</g>
</g>
<!-- Node1&#45;&gt;Node2 -->
<g id="edge1" class="edge">
<title>Node1&#45;&gt;Node2</title>
<path fill="none" stroke="midnightblue" d="M443.77,-32.51C392.6,-36.27 312.63,-42.15 267.33,-45.48"/>
<polygon fill="midnightblue" stroke="midnightblue" points="444.2,-35.99 453.91,-31.76 443.68,-29.01 444.2,-35.99"/>
</g>
<!-- Node5 -->
<g id="node5" class="node">
<title>Node5</title>
<g id="a_node5"><a xlink:href="drawing__handler_8c.html#a82075957885db6d3ff359d07c7509a14" target="_top" xlink:title="Draws rectangle ornaments on the image.">
<polygon fill="white" stroke="black" points="303,-0.5 303,-19.5 418,-19.5 418,-0.5 303,-0.5"/>
<text text-anchor="middle" x="360.5" y="-7.5" font-family="Helvetica,sans-Serif" font-size="10.00">rectangle_ornament</text>
</a>
</g>
</g>
<!-- Node1&#45;&gt;Node5 -->
<g id="edge4" class="edge">
<title>Node1&#45;&gt;Node5</title>
<path fill="none" stroke="midnightblue" d="M443.99,-22.06C435.66,-20.84 426.92,-19.56 418.37,-18.31"/>
<polygon fill="midnightblue" stroke="midnightblue" points="443.5,-25.52 453.9,-23.5 444.51,-18.59 443.5,-25.52"/>
</g>
<!-- Node3 -->
<g id="node3" class="node">
<title>Node3</title>
<g id="a_node3"><a xlink:href="task__handler_8c.html#a4341cea57facc9429ec9f8390e11d8be" target="_top" xlink:title="Handles task switching based on provided options.">
<polygon fill="white" stroke="black" points="77,-19.5 77,-38.5 161,-38.5 161,-19.5 77,-19.5"/>
<text text-anchor="middle" x="119" y="-26.5" font-family="Helvetica,sans-Serif" font-size="10.00">task_switcher</text>
</a>
</g>
</g>
<!-- Node2&#45;&gt;Node3 -->
<g id="edge2" class="edge">
<title>Node2&#45;&gt;Node3</title>
<path fill="none" stroke="midnightblue" d="M186.78,-40.43C178.38,-38.99 169.63,-37.49 161.32,-36.07"/>
<polygon fill="midnightblue" stroke="midnightblue" points="186.34,-43.91 196.79,-42.14 187.52,-37.01 186.34,-43.91"/>
</g>
<!-- Node4 -->
<g id="node4" class="node">
<title>Node4</title>
<g id="a_node4"><a xlink:href="main_8c.html#a0ddf1224851353fc92bfbff6f499fa97" target="_top" xlink:title="Main function to handle command&#45;line arguments and process image tasks.">
<polygon fill="white" stroke="black" points="0,-19.5 0,-38.5 41,-38.5 41,-19.5 0,-19.5"/>
<text text-anchor="middle" x="20.5" y="-26.5" font-family="Helvetica,sans-Serif" font-size="10.00">main</text>
</a>
</g>
</g>
<!-- Node3&#45;&gt;Node4 -->
<g id="edge3" class="edge">
<title>Node3&#45;&gt;Node4</title>
<path fill="none" stroke="midnightblue" d="M66.55,-29C57.48,-29 48.55,-29 41.07,-29"/>
<polygon fill="midnightblue" stroke="midnightblue" points="66.8,-32.5 76.8,-29 66.8,-25.5 66.8,-32.5"/>
</g>
<!-- Node6 -->
<g id="node6" class="node">
<title>Node6</title>
<g id="a_node6"><a xlink:href="task__handler_8c.html#a4036aae53bb53c722b7a288b0a63d7ac" target="_top" xlink:title="Draws an ornament pattern on the given image.">
<polygon fill="white" stroke="black" points="200,-0.5 200,-19.5 264,-19.5 264,-0.5 200,-0.5"/>
<text text-anchor="middle" x="232" y="-7.5" font-family="Helvetica,sans-Serif" font-size="10.00">ornament</text>
</a>
</g>
</g>
<!-- Node5&#45;&gt;Node6 -->
<g id="edge5" class="edge">
<title>Node5&#45;&gt;Node6</title>
<path fill="none" stroke="midnightblue" d="M292.91,-10C282.9,-10 273.01,-10 264.24,-10"/>
<polygon fill="midnightblue" stroke="midnightblue" points="292.91,-13.5 302.91,-10 292.91,-6.5 292.91,-13.5"/>
</g>
<!-- Node6&#45;&gt;Node3 -->
<g id="edge6" class="edge">
<title>Node6&#45;&gt;Node3</title>
<path fill="none" stroke="midnightblue" d="M189.64,-17.08C180.4,-18.66 170.59,-20.34 161.34,-21.92"/>
<polygon fill="midnightblue" stroke="midnightblue" points="190.52,-20.48 199.78,-15.34 189.34,-13.58 190.52,-20.48"/>
</g>
</g>
</svg>
