<?xml version="1.0" encoding="UTF-8" standalone="no"?>
<!DOCTYPE svg PUBLIC "-//W3C//DTD SVG 1.1//EN"
 "http://www.w3.org/Graphics/SVG/1.1/DTD/svg11.dtd">
<!-- Generated by graphviz version 2.43.0 (0)
 -->
<!-- Title: draw_pixel Pages: 1 -->
<svg width="704pt" height="180pt"
 viewBox="0.00 0.00 704.00 180.00" xmlns="http://www.w3.org/2000/svg" xmlns:xlink="http://www.w3.org/1999/xlink">
<g id="graph0" class="graph" transform="scale(1 1) rotate(0) translate(4 176)">
<title>draw_pixel</title>
<polygon fill="white" stroke="transparent" points="-4,4 -4,-176 700,-176 700,4 -4,4"/>
<!-- Node1 -->
<g id="node1" class="node">
<title>Node1</title>
<g id="a_node1"><a xlink:title="Draws a single pixel with the specified color values.">
<polygon fill="#bfbfbf" stroke="black" points="627,-57.5 627,-76.5 696,-76.5 696,-57.5 627,-57.5"/>
<text text-anchor="middle" x="661.5" y="-64.5" font-family="Helvetica,sans-Serif" font-size="10.00">draw_pixel</text>
</a>
</g>
</g>
<!-- Node2 -->
<g id="node2" class="node">
<title>Node2</title>
<g id="a_node2"><a xlink:href="drawing__handler_8c.html#ab0b50289af6a493dae78818783b1bc05" target="_top" xlink:title="Draws a circle ornament on the image.">
<polygon fill="white" stroke="black" points="325,-38.5 325,-57.5 420,-57.5 420,-38.5 325,-38.5"/>
<text text-anchor="middle" x="372.5" y="-45.5" font-family="Helvetica,sans-Serif" font-size="10.00">circle_ornament</text>
</a>
</g>
</g>
<!-- Node1&#45;&gt;Node2 -->
<g id="edge1" class="edge">
<title>Node1&#45;&gt;Node2</title>
<path fill="none" stroke="midnightblue" d="M616.61,-64.09C563.52,-60.58 474.5,-54.69 420.18,-51.09"/>
<polygon fill="midnightblue" stroke="midnightblue" points="616.52,-67.6 626.73,-64.76 616.99,-60.61 616.52,-67.6"/>
</g>
<!-- Node6 -->
<g id="node6" class="node">
<title>Node6</title>
<g id="a_node6"><a xlink:href="task__handler_8c.html#a60e326633de7597f6de251833d489d7e" target="_top" xlink:title="Replaces all pixels of the specified old color with the new color.">
<polygon fill="white" stroke="black" points="197,-152.5 197,-171.5 279,-171.5 279,-152.5 197,-152.5"/>
<text text-anchor="middle" x="238" y="-159.5" font-family="Helvetica,sans-Serif" font-size="10.00">color_replace</text>
</a>
</g>
</g>
<!-- Node1&#45;&gt;Node6 -->
<g id="edge5" class="edge">
<title>Node1&#45;&gt;Node6</title>
<path fill="none" stroke="midnightblue" d="M637.72,-82.03C624.57,-90.04 607.43,-99.36 591,-105 482.08,-142.36 345.62,-155.52 279.13,-159.93"/>
<polygon fill="midnightblue" stroke="midnightblue" points="639.91,-84.79 646.52,-76.51 636.19,-78.86 639.91,-84.79"/>
</g>
<!-- Node7 -->
<g id="node7" class="node">
<title>Node7</title>
<g id="a_node7"><a xlink:href="drawing__handler_8c.html#ab00e9a7968a0cc509da7053cba9cbd76" target="_top" xlink:title="Draws a border around the specified rectangle in the image.">
<polygon fill="white" stroke="black" points="490,-76.5 490,-95.5 567,-95.5 567,-76.5 490,-76.5"/>
<text text-anchor="middle" x="528.5" y="-83.5" font-family="Helvetica,sans-Serif" font-size="10.00">draw_border</text>
</a>
</g>
</g>
<!-- Node1&#45;&gt;Node7 -->
<g id="edge7" class="edge">
<title>Node1&#45;&gt;Node7</title>
<path fill="none" stroke="midnightblue" d="M616.59,-73.37C600.6,-75.69 582.69,-78.29 567.28,-80.52"/>
<polygon fill="midnightblue" stroke="midnightblue" points="617.37,-76.79 626.76,-71.89 616.37,-69.86 617.37,-76.79"/>
</g>
<!-- Node10 -->
<g id="node10" class="node">
<title>Node10</title>
<g id="a_node10"><a xlink:href="drawing__handler_8c.html#a9f70c4c4ca6fd269cc780f7d0074e350" target="_top" xlink:title="Draws semicircle ornaments on the image.">
<polygon fill="white" stroke="black" points="466,-0.5 466,-19.5 591,-19.5 591,-0.5 466,-0.5"/>
<text text-anchor="middle" x="528.5" y="-7.5" font-family="Helvetica,sans-Serif" font-size="10.00">semicircles_ornament</text>
</a>
</g>
</g>
<!-- Node1&#45;&gt;Node10 -->
<g id="edge12" class="edge">
<title>Node1&#45;&gt;Node10</title>
<path fill="none" stroke="midnightblue" d="M632.16,-52.98C619.64,-46.93 604.68,-39.91 591,-34 579.32,-28.96 566.21,-23.77 555.1,-19.52"/>
<polygon fill="midnightblue" stroke="midnightblue" points="630.67,-56.15 641.2,-57.38 633.74,-49.86 630.67,-56.15"/>
</g>
<!-- Node3 -->
<g id="node3" class="node">
<title>Node3</title>
<g id="a_node3"><a xlink:href="task__handler_8c.html#a4036aae53bb53c722b7a288b0a63d7ac" target="_top" xlink:title="Draws an ornament pattern on the given image.">
<polygon fill="white" stroke="black" points="206,-57.5 206,-76.5 270,-76.5 270,-57.5 206,-57.5"/>
<text text-anchor="middle" x="238" y="-64.5" font-family="Helvetica,sans-Serif" font-size="10.00">ornament</text>
</a>
</g>
</g>
<!-- Node2&#45;&gt;Node3 -->
<g id="edge2" class="edge">
<title>Node2&#45;&gt;Node3</title>
<path fill="none" stroke="midnightblue" d="M314.46,-56.18C299.34,-58.35 283.56,-60.61 270.37,-62.5"/>
<polygon fill="midnightblue" stroke="midnightblue" points="315.38,-59.58 324.79,-54.7 314.39,-52.65 315.38,-59.58"/>
</g>
<!-- Node4 -->
<g id="node4" class="node">
<title>Node4</title>
<g id="a_node4"><a xlink:href="task__handler_8c.html#a4341cea57facc9429ec9f8390e11d8be" target="_top" xlink:title="Handles task switching based on provided options.">
<polygon fill="white" stroke="black" points="77,-114.5 77,-133.5 161,-133.5 161,-114.5 77,-114.5"/>
<text text-anchor="middle" x="119" y="-121.5" font-family="Helvetica,sans-Serif" font-size="10.00">task_switcher</text>
</a>
</g>
</g>
<!-- Node3&#45;&gt;Node4 -->
<g id="edge3" class="edge">
<title>Node3&#45;&gt;Node4</title>
<path fill="none" stroke="midnightblue" d="M208.19,-81.04C186.87,-91.42 158.4,-105.29 139.65,-114.43"/>
<polygon fill="midnightblue" stroke="midnightblue" points="209.96,-84.07 217.42,-76.54 206.89,-77.77 209.96,-84.07"/>
</g>
<!-- Node5 -->
<g id="node5" class="node">
<title>Node5</title>
<g id="a_node5"><a xlink:href="main_8c.html#a0ddf1224851353fc92bfbff6f499fa97" target="_top" xlink:title="Main function to handle command&#45;line arguments and process image tasks.">
<polygon fill="white" stroke="black" points="0,-114.5 0,-133.5 41,-133.5 41,-114.5 0,-114.5"/>
<text text-anchor="middle" x="20.5" y="-121.5" font-family="Helvetica,sans-Serif" font-size="10.00">main</text>
</a>
</g>
</g>
<!-- Node4&#45;&gt;Node5 -->
<g id="edge4" class="edge">
<title>Node4&#45;&gt;Node5</title>
<path fill="none" stroke="midnightblue" d="M66.55,-124C57.48,-124 48.55,-124 41.07,-124"/>
<polygon fill="midnightblue" stroke="midnightblue" points="66.8,-127.5 76.8,-124 66.8,-120.5 66.8,-127.5"/>
</g>
<!-- Node6&#45;&gt;Node4 -->
<g id="edge6" class="edge">
<title>Node6&#45;&gt;Node4</title>
<path fill="none" stroke="midnightblue" d="M197.96,-149.32C182.15,-144.19 164.2,-138.36 149.51,-133.59"/>
<polygon fill="midnightblue" stroke="midnightblue" points="196.88,-152.65 207.48,-152.41 199.05,-145.99 196.88,-152.65"/>
</g>
<!-- Node8 -->
<g id="node8" class="node">
<title>Node8</title>
<g id="a_node8"><a xlink:href="task__handler_8c.html#ac49a2b5090f3e5a87b40d45bd968c325" target="_top" xlink:title="Finds all filled rectangles in the image and draws borders around them.">
<polygon fill="white" stroke="black" points="203,-114.5 203,-133.5 273,-133.5 273,-114.5 203,-114.5"/>
<text text-anchor="middle" x="238" y="-121.5" font-family="Helvetica,sans-Serif" font-size="10.00">filled_rects</text>
</a>
</g>
</g>
<!-- Node7&#45;&gt;Node8 -->
<g id="edge8" class="edge">
<title>Node7&#45;&gt;Node8</title>
<path fill="none" stroke="midnightblue" d="M479.63,-96.25C463.87,-99.38 446.24,-102.62 430,-105 375.43,-113.01 311.59,-118.61 273.28,-121.56"/>
<polygon fill="midnightblue" stroke="midnightblue" points="480.56,-99.63 489.67,-94.22 479.18,-92.77 480.56,-99.63"/>
</g>
<!-- Node9 -->
<g id="node9" class="node">
<title>Node9</title>
<g id="a_node9"><a xlink:href="drawing__handler_8c.html#a82075957885db6d3ff359d07c7509a14" target="_top" xlink:title="Draws rectangle ornaments on the image.">
<polygon fill="white" stroke="black" points="315,-76.5 315,-95.5 430,-95.5 430,-76.5 315,-76.5"/>
<text text-anchor="middle" x="372.5" y="-83.5" font-family="Helvetica,sans-Serif" font-size="10.00">rectangle_ornament</text>
</a>
</g>
</g>
<!-- Node7&#45;&gt;Node9 -->
<g id="edge10" class="edge">
<title>Node7&#45;&gt;Node9</title>
<path fill="none" stroke="midnightblue" d="M479.79,-86C464.03,-86 446.36,-86 430.01,-86"/>
<polygon fill="midnightblue" stroke="midnightblue" points="479.83,-89.5 489.83,-86 479.83,-82.5 479.83,-89.5"/>
</g>
<!-- Node8&#45;&gt;Node4 -->
<g id="edge9" class="edge">
<title>Node8&#45;&gt;Node4</title>
<path fill="none" stroke="midnightblue" d="M192.71,-124C182.31,-124 171.28,-124 161.03,-124"/>
<polygon fill="midnightblue" stroke="midnightblue" points="192.84,-127.5 202.84,-124 192.84,-120.5 192.84,-127.5"/>
</g>
<!-- Node9&#45;&gt;Node3 -->
<g id="edge11" class="edge">
<title>Node9&#45;&gt;Node3</title>
<path fill="none" stroke="midnightblue" d="M304.79,-76.43C292.7,-74.7 280.63,-72.97 270.18,-71.47"/>
<polygon fill="midnightblue" stroke="midnightblue" points="304.53,-79.93 314.92,-77.89 305.52,-73 304.53,-79.93"/>
</g>
<!-- Node10&#45;&gt;Node3 -->
<g id="edge13" class="edge">
<title>Node10&#45;&gt;Node3</title>
<path fill="none" stroke="midnightblue" d="M455.86,-9.78C414.08,-11.28 360.76,-16.02 315,-29 292.58,-35.36 268.88,-48.34 254.03,-57.35"/>
<polygon fill="midnightblue" stroke="midnightblue" points="456.06,-13.28 465.95,-9.47 455.85,-6.28 456.06,-13.28"/>
</g>
</g>
</svg>
