<?xml version="1.0" encoding="UTF-8" standalone="no"?>
<!DOCTYPE svg PUBLIC "-//W3C//DTD SVG 1.1//EN"
 "http://www.w3.org/Graphics/SVG/1.1/DTD/svg11.dtd">
<!-- Generated by graphviz version 2.43.0 (0)
 -->
<!-- Title: main Pages: 1 -->
<svg width="732pt" height="294pt"
 viewBox="0.00 0.00 732.00 294.00" xmlns="http://www.w3.org/2000/svg" xmlns:xlink="http://www.w3.org/1999/xlink">
<g id="graph0" class="graph" transform="scale(1 1) rotate(0) translate(4 290)">
<title>main</title>
<polygon fill="white" stroke="transparent" points="-4,4 -4,-290 728,-290 728,4 -4,4"/>
<!-- Node1 -->
<g id="node1" class="node">
<title>Node1</title>
<g id="a_node1"><a xlink:title="Main function to handle command&#45;line arguments and process image tasks.">
<polygon fill="#bfbfbf" stroke="black" points="0,-190.5 0,-209.5 41,-209.5 41,-190.5 0,-190.5"/>
<text text-anchor="middle" x="20.5" y="-197.5" font-family="Helvetica,sans-Serif" font-size="10.00">main</text>
</a>
</g>
</g>
<!-- Node2 -->
<g id="node2" class="node">
<title>Node2</title>
<g id="a_node2"><a xlink:href="preparation__handler_8c.html#aebddacf3d0c75ee8920b8d508f9fcdb4" target="_top" xlink:title="Handles command&#45;line arguments passed to the program and populates the Options structure accordingly.">
<polygon fill="white" stroke="black" points="77,-256.5 77,-275.5 184,-275.5 184,-256.5 77,-256.5"/>
<text text-anchor="middle" x="130.5" y="-263.5" font-family="Helvetica,sans-Serif" font-size="10.00">handle_arguments</text>
</a>
</g>
</g>
<!-- Node1&#45;&gt;Node2 -->
<g id="edge1" class="edge">
<title>Node1&#45;&gt;Node2</title>
<path fill="none" stroke="midnightblue" d="M34.91,-209.8C45.98,-217.74 62.22,-229.04 77,-238 84.74,-242.7 93.34,-247.46 101.3,-251.7"/>
<polygon fill="midnightblue" stroke="midnightblue" points="99.78,-254.85 110.26,-256.39 103.03,-248.65 99.78,-254.85"/>
</g>
<!-- Node4 -->
<g id="node4" class="node">
<title>Node4</title>
<g id="a_node4"><a xlink:href="file__handler_8c.html#a785899d72e2a87aef2ecf6da4ddbf064" target="_top" xlink:title="Reads a PNG file and stores its information and pixel data in a Png structure.">
<polygon fill="white" stroke="black" points="89.5,-209.5 89.5,-228.5 171.5,-228.5 171.5,-209.5 89.5,-209.5"/>
<text text-anchor="middle" x="130.5" y="-216.5" font-family="Helvetica,sans-Serif" font-size="10.00">read_png_file</text>
</a>
</g>
</g>
<!-- Node1&#45;&gt;Node4 -->
<g id="edge3" class="edge">
<title>Node1&#45;&gt;Node4</title>
<path fill="none" stroke="midnightblue" d="M41.06,-203.44C51.71,-205.32 65.44,-207.73 78.89,-210.1"/>
<polygon fill="midnightblue" stroke="midnightblue" points="78.61,-213.6 89.06,-211.89 79.82,-206.71 78.61,-213.6"/>
</g>
<!-- Node5 -->
<g id="node5" class="node">
<title>Node5</title>
<g id="a_node5"><a xlink:href="task__handler_8c.html#a4341cea57facc9429ec9f8390e11d8be" target="_top" xlink:title="Handles task switching based on provided options.">
<polygon fill="white" stroke="black" points="88.5,-171.5 88.5,-190.5 172.5,-190.5 172.5,-171.5 88.5,-171.5"/>
<text text-anchor="middle" x="130.5" y="-178.5" font-family="Helvetica,sans-Serif" font-size="10.00">task_switcher</text>
</a>
</g>
</g>
<!-- Node1&#45;&gt;Node5 -->
<g id="edge4" class="edge">
<title>Node1&#45;&gt;Node5</title>
<path fill="none" stroke="midnightblue" d="M41.06,-196.56C51.52,-194.72 64.94,-192.36 78.16,-190.03"/>
<polygon fill="midnightblue" stroke="midnightblue" points="78.92,-193.45 88.16,-188.27 77.71,-186.56 78.92,-193.45"/>
</g>
<!-- Node18 -->
<g id="node18" class="node">
<title>Node18</title>
<g id="a_node18"><a xlink:href="file__handler_8c.html#af557d395c8a98122b2d5d57b446f6091" target="_top" xlink:title="Writes a PNG image to a file.">
<polygon fill="white" stroke="black" points="88,-133.5 88,-152.5 173,-152.5 173,-133.5 88,-133.5"/>
<text text-anchor="middle" x="130.5" y="-140.5" font-family="Helvetica,sans-Serif" font-size="10.00">write_png_file</text>
</a>
</g>
</g>
<!-- Node1&#45;&gt;Node18 -->
<g id="edge23" class="edge">
<title>Node1&#45;&gt;Node18</title>
<path fill="none" stroke="midnightblue" d="M33.72,-190.29C44.6,-181.98 61.21,-170.1 77,-162 80.99,-159.95 85.25,-158.03 89.56,-156.24"/>
<polygon fill="midnightblue" stroke="midnightblue" points="90.92,-159.47 98.96,-152.58 88.37,-152.95 90.92,-159.47"/>
</g>
<!-- Node3 -->
<g id="node3" class="node">
<title>Node3</title>
<g id="a_node3"><a xlink:href="task__handler_8c.html#a853216ac51aa181669ff4d3de74058a7" target="_top" xlink:title="Prints the help message explaining the usage of the program and its options.">
<polygon fill="white" stroke="black" points="230.5,-266.5 230.5,-285.5 295.5,-285.5 295.5,-266.5 230.5,-266.5"/>
<text text-anchor="middle" x="263" y="-273.5" font-family="Helvetica,sans-Serif" font-size="10.00">print_help</text>
</a>
</g>
</g>
<!-- Node2&#45;&gt;Node3 -->
<g id="edge2" class="edge">
<title>Node2&#45;&gt;Node3</title>
<path fill="none" stroke="midnightblue" d="M184.2,-270.04C196.12,-270.95 208.61,-271.91 220.02,-272.78"/>
<polygon fill="midnightblue" stroke="midnightblue" points="219.9,-276.28 230.14,-273.56 220.43,-269.3 219.9,-276.28"/>
</g>
<!-- Node6 -->
<g id="node6" class="node">
<title>Node6</title>
<g id="a_node6"><a xlink:href="task__handler_8c.html#a60e326633de7597f6de251833d489d7e" target="_top" xlink:title="Replaces all pixels of the specified old color with the new color.">
<polygon fill="white" stroke="black" points="222,-152.5 222,-171.5 304,-171.5 304,-152.5 222,-152.5"/>
<text text-anchor="middle" x="263" y="-159.5" font-family="Helvetica,sans-Serif" font-size="10.00">color_replace</text>
</a>
</g>
</g>
<!-- Node5&#45;&gt;Node6 -->
<g id="edge5" class="edge">
<title>Node5&#45;&gt;Node6</title>
<path fill="none" stroke="midnightblue" d="M172.79,-174.99C185.16,-173.19 198.87,-171.19 211.76,-169.32"/>
<polygon fill="midnightblue" stroke="midnightblue" points="212.48,-172.75 221.87,-167.84 211.47,-165.82 212.48,-172.75"/>
</g>
<!-- Node9 -->
<g id="node9" class="node">
<title>Node9</title>
<g id="a_node9"><a xlink:href="task__handler_8c.html#a30ea9eb68d00a2f7776471808190028e" target="_top" xlink:title="Copies the specified area from the original image to a new structure, then copies it back to the orig...">
<polygon fill="white" stroke="black" points="229.5,-228.5 229.5,-247.5 296.5,-247.5 296.5,-228.5 229.5,-228.5"/>
<text text-anchor="middle" x="263" y="-235.5" font-family="Helvetica,sans-Serif" font-size="10.00">copy_area</text>
</a>
</g>
</g>
<!-- Node5&#45;&gt;Node9 -->
<g id="edge8" class="edge">
<title>Node5&#45;&gt;Node9</title>
<path fill="none" stroke="midnightblue" d="M160.12,-190.55C167.95,-193.38 176.38,-196.63 184,-200 200.55,-207.32 203.75,-211.05 220,-219 223.54,-220.73 227.27,-222.5 230.99,-224.23"/>
<polygon fill="midnightblue" stroke="midnightblue" points="229.53,-227.41 240.08,-228.39 232.45,-221.05 229.53,-227.41"/>
</g>
<!-- Node11 -->
<g id="node11" class="node">
<title>Node11</title>
<g id="a_node11"><a xlink:href="task__handler_8c.html#ac49a2b5090f3e5a87b40d45bd968c325" target="_top" xlink:title="Finds all filled rectangles in the image and draws borders around them.">
<polygon fill="white" stroke="black" points="228,-114.5 228,-133.5 298,-133.5 298,-114.5 228,-114.5"/>
<text text-anchor="middle" x="263" y="-121.5" font-family="Helvetica,sans-Serif" font-size="10.00">filled_rects</text>
</a>
</g>
</g>
<!-- Node5&#45;&gt;Node11 -->
<g id="edge10" class="edge">
<title>Node5&#45;&gt;Node11</title>
<path fill="none" stroke="midnightblue" d="M160.12,-171.45C167.95,-168.62 176.38,-165.37 184,-162 200.55,-154.68 203.75,-150.95 220,-143 223.54,-141.27 227.27,-139.5 230.99,-137.77"/>
<polygon fill="midnightblue" stroke="midnightblue" points="232.45,-140.95 240.08,-133.61 229.53,-134.59 232.45,-140.95"/>
</g>
<!-- Node13 -->
<g id="node13" class="node">
<title>Node13</title>
<g id="a_node13"><a xlink:href="task__handler_8c.html#a4036aae53bb53c722b7a288b0a63d7ac" target="_top" xlink:title="Draws an ornament pattern on the given image.">
<polygon fill="white" stroke="black" points="231,-76.5 231,-95.5 295,-95.5 295,-76.5 231,-76.5"/>
<text text-anchor="middle" x="263" y="-83.5" font-family="Helvetica,sans-Serif" font-size="10.00">ornament</text>
</a>
</g>
</g>
<!-- Node5&#45;&gt;Node13 -->
<g id="edge14" class="edge">
<title>Node5&#45;&gt;Node13</title>
<path fill="none" stroke="midnightblue" d="M167.91,-171.41C173.65,-168.92 179.24,-165.83 184,-162 207.35,-143.22 197.4,-124.67 220,-105 221.72,-103.51 223.57,-102.11 225.51,-100.81"/>
<polygon fill="midnightblue" stroke="midnightblue" points="227.48,-103.71 234.4,-95.69 223.98,-97.65 227.48,-103.71"/>
</g>
<!-- Node17 -->
<g id="node17" class="node">
<title>Node17</title>
<g id="a_node17"><a xlink:href="task__handler_8c.html#af4c732a598d00f62458fce659262b01f" target="_top" xlink:title="Prints information about a PNG image.">
<polygon fill="white" stroke="black" points="220,-190.5 220,-209.5 306,-209.5 306,-190.5 220,-190.5"/>
<text text-anchor="middle" x="263" y="-197.5" font-family="Helvetica,sans-Serif" font-size="10.00">print_png_info</text>
</a>
</g>
</g>
<!-- Node5&#45;&gt;Node17 -->
<g id="edge22" class="edge">
<title>Node5&#45;&gt;Node17</title>
<path fill="none" stroke="midnightblue" d="M172.79,-187.01C184.46,-188.71 197.31,-190.58 209.54,-192.36"/>
<polygon fill="midnightblue" stroke="midnightblue" points="209.23,-195.85 219.63,-193.83 210.24,-188.93 209.23,-195.85"/>
</g>
<!-- Node7 -->
<g id="node7" class="node">
<title>Node7</title>
<g id="a_node7"><a xlink:href="drawing__handler_8c.html#a8ea4fa7547fe4a58da4df99aaf430c7c" target="_top" xlink:title="Draws a single pixel with the specified color values.">
<polygon fill="white" stroke="black" points="655,-57.5 655,-76.5 724,-76.5 724,-57.5 655,-57.5"/>
<text text-anchor="middle" x="689.5" y="-64.5" font-family="Helvetica,sans-Serif" font-size="10.00">draw_pixel</text>
</a>
</g>
</g>
<!-- Node6&#45;&gt;Node7 -->
<g id="edge6" class="edge">
<title>Node6&#45;&gt;Node7</title>
<path fill="none" stroke="midnightblue" d="M295.56,-171.51C309.63,-175.27 326.5,-179.14 342,-181 393.19,-187.14 407.69,-192.28 458,-181 540.27,-162.56 626.6,-109.28 666.23,-82.61"/>
<polygon fill="midnightblue" stroke="midnightblue" points="668.55,-85.26 674.83,-76.73 664.6,-79.48 668.55,-85.26"/>
</g>
<!-- Node8 -->
<g id="node8" class="node">
<title>Node8</title>
<g id="a_node8"><a xlink:href="preparation__handler_8c.html#ad9cc9d8449cd151d34b077c79f98a7de" target="_top" xlink:title="Processes color provided as a string and returns it as an integer array.">
<polygon fill="white" stroke="black" points="358.5,-152.5 358.5,-171.5 441.5,-171.5 441.5,-152.5 358.5,-152.5"/>
<text text-anchor="middle" x="400" y="-159.5" font-family="Helvetica,sans-Serif" font-size="10.00">process_color</text>
</a>
</g>
</g>
<!-- Node6&#45;&gt;Node8 -->
<g id="edge7" class="edge">
<title>Node6&#45;&gt;Node8</title>
<path fill="none" stroke="midnightblue" d="M304.14,-162C317.9,-162 333.48,-162 347.99,-162"/>
<polygon fill="midnightblue" stroke="midnightblue" points="348.32,-165.5 358.32,-162 348.32,-158.5 348.32,-165.5"/>
</g>
<!-- Node10 -->
<g id="node10" class="node">
<title>Node10</title>
<g id="a_node10"><a xlink:href="preparation__handler_8c.html#aba7666b4a097db12f975e6e955e61f22" target="_top" xlink:title="Processes coordinates provided as a string and returns them as an integer array.">
<polygon fill="white" stroke="black" points="342,-228.5 342,-247.5 458,-247.5 458,-228.5 342,-228.5"/>
<text text-anchor="middle" x="400" y="-235.5" font-family="Helvetica,sans-Serif" font-size="10.00">process_coordinates</text>
</a>
</g>
</g>
<!-- Node9&#45;&gt;Node10 -->
<g id="edge9" class="edge">
<title>Node9&#45;&gt;Node10</title>
<path fill="none" stroke="midnightblue" d="M296.68,-238C307.29,-238 319.48,-238 331.66,-238"/>
<polygon fill="midnightblue" stroke="midnightblue" points="331.85,-241.5 341.85,-238 331.85,-234.5 331.85,-241.5"/>
</g>
<!-- Node11&#45;&gt;Node8 -->
<g id="edge13" class="edge">
<title>Node11&#45;&gt;Node8</title>
<path fill="none" stroke="midnightblue" d="M298.07,-133.59C315.41,-138.47 336.7,-144.46 355.25,-149.68"/>
<polygon fill="midnightblue" stroke="midnightblue" points="354.37,-153.07 364.94,-152.41 356.27,-146.34 354.37,-153.07"/>
</g>
<!-- Node12 -->
<g id="node12" class="node">
<title>Node12</title>
<g id="a_node12"><a xlink:href="drawing__handler_8c.html#ab00e9a7968a0cc509da7053cba9cbd76" target="_top" xlink:title="Draws a border around the specified rectangle in the image.">
<polygon fill="white" stroke="black" points="518,-76.5 518,-95.5 595,-95.5 595,-76.5 518,-76.5"/>
<text text-anchor="middle" x="556.5" y="-83.5" font-family="Helvetica,sans-Serif" font-size="10.00">draw_border</text>
</a>
</g>
</g>
<!-- Node11&#45;&gt;Node12 -->
<g id="edge11" class="edge">
<title>Node11&#45;&gt;Node12</title>
<path fill="none" stroke="midnightblue" d="M298.11,-121.64C336.95,-118.73 402.25,-113.14 458,-105 474.24,-102.63 491.88,-99.39 507.63,-96.27"/>
<polygon fill="midnightblue" stroke="midnightblue" points="508.57,-99.65 517.67,-94.24 507.18,-92.79 508.57,-99.65"/>
</g>
<!-- Node12&#45;&gt;Node7 -->
<g id="edge12" class="edge">
<title>Node12&#45;&gt;Node7</title>
<path fill="none" stroke="midnightblue" d="M595.04,-80.56C610.54,-78.31 628.62,-75.68 644.73,-73.35"/>
<polygon fill="midnightblue" stroke="midnightblue" points="645.58,-76.76 654.98,-71.86 644.58,-69.83 645.58,-76.76"/>
</g>
<!-- Node13&#45;&gt;Node8 -->
<g id="edge17" class="edge">
<title>Node13&#45;&gt;Node8</title>
<path fill="none" stroke="midnightblue" d="M286.48,-95.55C292.87,-98.43 299.78,-101.7 306,-105 330.48,-117.97 357.35,-134.73 375.88,-146.71"/>
<polygon fill="midnightblue" stroke="midnightblue" points="374.22,-149.81 384.51,-152.34 378.05,-143.94 374.22,-149.81"/>
</g>
<!-- Node14 -->
<g id="node14" class="node">
<title>Node14</title>
<g id="a_node14"><a xlink:href="drawing__handler_8c.html#ab0b50289af6a493dae78818783b1bc05" target="_top" xlink:title="Draws a circle ornament on the image.">
<polygon fill="white" stroke="black" points="509,-0.5 509,-19.5 604,-19.5 604,-0.5 509,-0.5"/>
<text text-anchor="middle" x="556.5" y="-7.5" font-family="Helvetica,sans-Serif" font-size="10.00">circle_ornament</text>
</a>
</g>
</g>
<!-- Node13&#45;&gt;Node14 -->
<g id="edge15" class="edge">
<title>Node13&#45;&gt;Node14</title>
<path fill="none" stroke="midnightblue" d="M281.47,-76.41C296.95,-68.29 320.4,-56.89 342,-50 393.89,-33.45 455.18,-22.84 498.75,-16.74"/>
<polygon fill="midnightblue" stroke="midnightblue" points="499.44,-20.18 508.87,-15.36 498.49,-13.24 499.44,-20.18"/>
</g>
<!-- Node15 -->
<g id="node15" class="node">
<title>Node15</title>
<g id="a_node15"><a xlink:href="drawing__handler_8c.html#a82075957885db6d3ff359d07c7509a14" target="_top" xlink:title="Draws rectangle ornaments on the image.">
<polygon fill="white" stroke="black" points="342.5,-76.5 342.5,-95.5 457.5,-95.5 457.5,-76.5 342.5,-76.5"/>
<text text-anchor="middle" x="400" y="-83.5" font-family="Helvetica,sans-Serif" font-size="10.00">rectangle_ornament</text>
</a>
</g>
</g>
<!-- Node13&#45;&gt;Node15 -->
<g id="edge18" class="edge">
<title>Node13&#45;&gt;Node15</title>
<path fill="none" stroke="midnightblue" d="M295.31,-86C306.37,-86 319.28,-86 332.15,-86"/>
<polygon fill="midnightblue" stroke="midnightblue" points="332.43,-89.5 342.43,-86 332.43,-82.5 332.43,-89.5"/>
</g>
<!-- Node16 -->
<g id="node16" class="node">
<title>Node16</title>
<g id="a_node16"><a xlink:href="drawing__handler_8c.html#a9f70c4c4ca6fd269cc780f7d0074e350" target="_top" xlink:title="Draws semicircle ornaments on the image.">
<polygon fill="white" stroke="black" points="494,-38.5 494,-57.5 619,-57.5 619,-38.5 494,-38.5"/>
<text text-anchor="middle" x="556.5" y="-45.5" font-family="Helvetica,sans-Serif" font-size="10.00">semicircles_ornament</text>
</a>
</g>
</g>
<!-- Node13&#45;&gt;Node16 -->
<g id="edge20" class="edge">
<title>Node13&#45;&gt;Node16</title>
<path fill="none" stroke="midnightblue" d="M295.28,-77.24C309.44,-73.57 326.46,-69.57 342,-67 388.98,-59.23 442.33,-54.48 483.95,-51.68"/>
<polygon fill="midnightblue" stroke="midnightblue" points="484.24,-55.16 493.99,-51.02 483.79,-48.18 484.24,-55.16"/>
</g>
<!-- Node14&#45;&gt;Node7 -->
<g id="edge16" class="edge">
<title>Node14&#45;&gt;Node7</title>
<path fill="none" stroke="midnightblue" d="M592.74,-19.56C601.44,-22.28 610.66,-25.48 619,-29 634.59,-35.59 651.26,-44.63 664.37,-52.24"/>
<polygon fill="midnightblue" stroke="midnightblue" points="662.82,-55.4 673.21,-57.47 666.39,-49.37 662.82,-55.4"/>
</g>
<!-- Node15&#45;&gt;Node12 -->
<g id="edge19" class="edge">
<title>Node15&#45;&gt;Node12</title>
<path fill="none" stroke="midnightblue" d="M457.65,-86C474.04,-86 491.77,-86 507.57,-86"/>
<polygon fill="midnightblue" stroke="midnightblue" points="507.64,-89.5 517.64,-86 507.64,-82.5 507.64,-89.5"/>
</g>
<!-- Node16&#45;&gt;Node7 -->
<g id="edge21" class="edge">
<title>Node16&#45;&gt;Node7</title>
<path fill="none" stroke="midnightblue" d="M619.16,-56.94C627.84,-58.2 636.61,-59.47 644.86,-60.67"/>
<polygon fill="midnightblue" stroke="midnightblue" points="644.58,-64.17 654.98,-62.14 645.59,-57.24 644.58,-64.17"/>
</g>
</g>
</svg>
