<?xml version="1.0" encoding="UTF-8" standalone="no"?>
<!DOCTYPE svg PUBLIC "-//W3C//DTD SVG 1.1//EN"
 "http://www.w3.org/Graphics/SVG/1.1/DTD/svg11.dtd">
<!-- Generated by graphviz version 2.43.0 (0)
 -->
<!-- Title: process_color Pages: 1 -->
<svg width="406pt" height="104pt"
 viewBox="0.00 0.00 406.00 104.00" xmlns="http://www.w3.org/2000/svg" xmlns:xlink="http://www.w3.org/1999/xlink">
<g id="graph0" class="graph" transform="scale(1 1) rotate(0) translate(4 100)">
<title>process_color</title>
<polygon fill="white" stroke="transparent" points="-4,4 -4,-100 402,-100 402,4 -4,4"/>
<!-- Node1 -->
<g id="node1" class="node">
<title>Node1</title>
<g id="a_node1"><a xlink:title="Processes color provided as a string and returns it as an integer array.">
<polygon fill="#bfbfbf" stroke="black" points="315,-38.5 315,-57.5 398,-57.5 398,-38.5 315,-38.5"/>
<text text-anchor="middle" x="356.5" y="-45.5" font-family="Helvetica,sans-Serif" font-size="10.00">process_color</text>
</a>
</g>
</g>
<!-- Node2 -->
<g id="node2" class="node">
<title>Node2</title>
<g id="a_node2"><a xlink:href="task__handler_8c.html#a60e326633de7597f6de251833d489d7e" target="_top" xlink:title="Replaces all pixels of the specified old color with the new color.">
<polygon fill="white" stroke="black" points="197,-76.5 197,-95.5 279,-95.5 279,-76.5 197,-76.5"/>
<text text-anchor="middle" x="238" y="-83.5" font-family="Helvetica,sans-Serif" font-size="10.00">color_replace</text>
</a>
</g>
</g>
<!-- Node1&#45;&gt;Node2 -->
<g id="edge1" class="edge">
<title>Node1&#45;&gt;Node2</title>
<path fill="none" stroke="midnightblue" d="M316.18,-60.83C300.55,-65.92 282.87,-71.69 268.39,-76.41"/>
<polygon fill="midnightblue" stroke="midnightblue" points="317.68,-64.02 326.1,-57.59 315.51,-57.36 317.68,-64.02"/>
</g>
<!-- Node5 -->
<g id="node5" class="node">
<title>Node5</title>
<g id="a_node5"><a xlink:href="task__handler_8c.html#ac49a2b5090f3e5a87b40d45bd968c325" target="_top" xlink:title="Finds all filled rectangles in the image and draws borders around them.">
<polygon fill="white" stroke="black" points="203,-38.5 203,-57.5 273,-57.5 273,-38.5 203,-38.5"/>
<text text-anchor="middle" x="238" y="-45.5" font-family="Helvetica,sans-Serif" font-size="10.00">filled_rects</text>
</a>
</g>
</g>
<!-- Node1&#45;&gt;Node5 -->
<g id="edge4" class="edge">
<title>Node1&#45;&gt;Node5</title>
<path fill="none" stroke="midnightblue" d="M304.74,-48C294.13,-48 283.19,-48 273.35,-48"/>
<polygon fill="midnightblue" stroke="midnightblue" points="304.75,-51.5 314.75,-48 304.75,-44.5 304.75,-51.5"/>
</g>
<!-- Node6 -->
<g id="node6" class="node">
<title>Node6</title>
<g id="a_node6"><a xlink:href="task__handler_8c.html#a4036aae53bb53c722b7a288b0a63d7ac" target="_top" xlink:title="Draws an ornament pattern on the given image.">
<polygon fill="white" stroke="black" points="206,-0.5 206,-19.5 270,-19.5 270,-0.5 206,-0.5"/>
<text text-anchor="middle" x="238" y="-7.5" font-family="Helvetica,sans-Serif" font-size="10.00">ornament</text>
</a>
</g>
</g>
<!-- Node1&#45;&gt;Node6 -->
<g id="edge6" class="edge">
<title>Node1&#45;&gt;Node6</title>
<path fill="none" stroke="midnightblue" d="M316.18,-35.17C300.55,-30.08 282.87,-24.31 268.39,-19.59"/>
<polygon fill="midnightblue" stroke="midnightblue" points="315.51,-38.64 326.1,-38.41 317.68,-31.98 315.51,-38.64"/>
</g>
<!-- Node3 -->
<g id="node3" class="node">
<title>Node3</title>
<g id="a_node3"><a xlink:href="task__handler_8c.html#a4341cea57facc9429ec9f8390e11d8be" target="_top" xlink:title="Handles task switching based on provided options.">
<polygon fill="white" stroke="black" points="77,-38.5 77,-57.5 161,-57.5 161,-38.5 77,-38.5"/>
<text text-anchor="middle" x="119" y="-45.5" font-family="Helvetica,sans-Serif" font-size="10.00">task_switcher</text>
</a>
</g>
</g>
<!-- Node2&#45;&gt;Node3 -->
<g id="edge2" class="edge">
<title>Node2&#45;&gt;Node3</title>
<path fill="none" stroke="midnightblue" d="M197.96,-73.32C182.15,-68.19 164.2,-62.36 149.51,-57.59"/>
<polygon fill="midnightblue" stroke="midnightblue" points="196.88,-76.65 207.48,-76.41 199.05,-69.99 196.88,-76.65"/>
</g>
<!-- Node4 -->
<g id="node4" class="node">
<title>Node4</title>
<g id="a_node4"><a xlink:href="main_8c.html#a0ddf1224851353fc92bfbff6f499fa97" target="_top" xlink:title="Main function to handle command&#45;line arguments and process image tasks.">
<polygon fill="white" stroke="black" points="0,-38.5 0,-57.5 41,-57.5 41,-38.5 0,-38.5"/>
<text text-anchor="middle" x="20.5" y="-45.5" font-family="Helvetica,sans-Serif" font-size="10.00">main</text>
</a>
</g>
</g>
<!-- Node3&#45;&gt;Node4 -->
<g id="edge3" class="edge">
<title>Node3&#45;&gt;Node4</title>
<path fill="none" stroke="midnightblue" d="M66.55,-48C57.48,-48 48.55,-48 41.07,-48"/>
<polygon fill="midnightblue" stroke="midnightblue" points="66.8,-51.5 76.8,-48 66.8,-44.5 66.8,-51.5"/>
</g>
<!-- Node5&#45;&gt;Node3 -->
<g id="edge5" class="edge">
<title>Node5&#45;&gt;Node3</title>
<path fill="none" stroke="midnightblue" d="M192.71,-48C182.31,-48 171.28,-48 161.03,-48"/>
<polygon fill="midnightblue" stroke="midnightblue" points="192.84,-51.5 202.84,-48 192.84,-44.5 192.84,-51.5"/>
</g>
<!-- Node6&#45;&gt;Node3 -->
<g id="edge7" class="edge">
<title>Node6&#45;&gt;Node3</title>
<path fill="none" stroke="midnightblue" d="M197.96,-22.68C182.15,-27.81 164.2,-33.64 149.51,-38.41"/>
<polygon fill="midnightblue" stroke="midnightblue" points="199.05,-26.01 207.48,-19.59 196.88,-19.35 199.05,-26.01"/>
</g>
</g>
</svg>
