<?xml version="1.0" encoding="UTF-8" standalone="no"?>
<!DOCTYPE svg PUBLIC "-//W3C//DTD SVG 1.1//EN"
 "http://www.w3.org/Graphics/SVG/1.1/DTD/svg11.dtd">
<!-- Generated by graphviz version 2.43.0 (0)
 -->
<!-- Title: src/task_handler.c Pages: 1 -->
<svg width="504pt" height="140pt"
 viewBox="0.00 0.00 503.50 140.00" xmlns="http://www.w3.org/2000/svg" xmlns:xlink="http://www.w3.org/1999/xlink">
<g id="graph0" class="graph" transform="scale(1 1) rotate(0) translate(4 136)">
<title>src/task_handler.c</title>
<polygon fill="white" stroke="transparent" points="-4,4 -4,-136 499.5,-136 499.5,4 -4,4"/>
<!-- Node1 -->
<g id="node1" class="node">
<title>Node1</title>
<g id="a_node1"><a xlink:title=" ">
<polygon fill="#bfbfbf" stroke="black" points="195,-112.5 195,-131.5 299,-131.5 299,-112.5 195,-112.5"/>
<text text-anchor="middle" x="247" y="-119.5" font-family="Helvetica,sans-Serif" font-size="10.00">src/task_handler.c</text>
</a>
</g>
</g>
<!-- Node2 -->
<g id="node2" class="node">
<title>Node2</title>
<g id="a_node2"><a xlink:title=" ">
<polygon fill="white" stroke="#bfbfbf" points="84,-56.5 84,-75.5 138,-75.5 138,-56.5 84,-56.5"/>
<text text-anchor="middle" x="111" y="-63.5" font-family="Helvetica,sans-Serif" font-size="10.00">errors.h</text>
</a>
</g>
</g>
<!-- Node1&#45;&gt;Node2 -->
<g id="edge1" class="edge">
<title>Node1&#45;&gt;Node2</title>
<path fill="none" stroke="midnightblue" d="M225.45,-112.44C202.97,-103.52 167.51,-89.44 142.02,-79.32"/>
<polygon fill="midnightblue" stroke="midnightblue" points="143.03,-75.95 132.45,-75.52 140.45,-82.46 143.03,-75.95"/>
</g>
<!-- Node3 -->
<g id="node3" class="node">
<title>Node3</title>
<g id="a_node3"><a xlink:href="structures_8h.html" target="_top" xlink:title=" ">
<polygon fill="white" stroke="black" points="156,-56.5 156,-75.5 230,-75.5 230,-56.5 156,-56.5"/>
<text text-anchor="middle" x="193" y="-63.5" font-family="Helvetica,sans-Serif" font-size="10.00">structures.h</text>
</a>
</g>
</g>
<!-- Node1&#45;&gt;Node3 -->
<g id="edge2" class="edge">
<title>Node1&#45;&gt;Node3</title>
<path fill="none" stroke="midnightblue" d="M238.08,-112.08C230.22,-104.22 218.57,-92.57 209.08,-83.08"/>
<polygon fill="midnightblue" stroke="midnightblue" points="211.3,-80.35 201.75,-75.75 206.35,-85.3 211.3,-80.35"/>
</g>
<!-- Node10 -->
<g id="node10" class="node">
<title>Node10</title>
<g id="a_node10"><a xlink:title=" ">
<polygon fill="white" stroke="#bfbfbf" points="248,-56.5 248,-75.5 354,-75.5 354,-56.5 248,-56.5"/>
<text text-anchor="middle" x="301" y="-63.5" font-family="Helvetica,sans-Serif" font-size="10.00">drawing_handler.h</text>
</a>
</g>
</g>
<!-- Node1&#45;&gt;Node10 -->
<g id="edge9" class="edge">
<title>Node1&#45;&gt;Node10</title>
<path fill="none" stroke="midnightblue" d="M255.92,-112.08C263.78,-104.22 275.43,-92.57 284.92,-83.08"/>
<polygon fill="midnightblue" stroke="midnightblue" points="287.65,-85.3 292.25,-75.75 282.7,-80.35 287.65,-85.3"/>
</g>
<!-- Node11 -->
<g id="node11" class="node">
<title>Node11</title>
<g id="a_node11"><a xlink:title=" ">
<polygon fill="white" stroke="#bfbfbf" points="372.5,-56.5 372.5,-75.5 495.5,-75.5 495.5,-56.5 372.5,-56.5"/>
<text text-anchor="middle" x="434" y="-63.5" font-family="Helvetica,sans-Serif" font-size="10.00">preparation_handler.h</text>
</a>
</g>
</g>
<!-- Node1&#45;&gt;Node11 -->
<g id="edge10" class="edge">
<title>Node1&#45;&gt;Node11</title>
<path fill="none" stroke="midnightblue" d="M276.63,-112.44C308.5,-103.24 359.33,-88.56 394.56,-78.39"/>
<polygon fill="midnightblue" stroke="midnightblue" points="395.87,-81.65 404.51,-75.52 393.93,-74.93 395.87,-81.65"/>
</g>
<!-- Node4 -->
<g id="node4" class="node">
<title>Node4</title>
<g id="a_node4"><a xlink:title=" ">
<polygon fill="white" stroke="#bfbfbf" points="0,-0.5 0,-19.5 44,-19.5 44,-0.5 0,-0.5"/>
<text text-anchor="middle" x="22" y="-7.5" font-family="Helvetica,sans-Serif" font-size="10.00">png.h</text>
</a>
</g>
</g>
<!-- Node3&#45;&gt;Node4 -->
<g id="edge3" class="edge">
<title>Node3&#45;&gt;Node4</title>
<path fill="none" stroke="midnightblue" d="M165.9,-56.44C135.48,-46.84 86.16,-31.26 53.9,-21.07"/>
<polygon fill="midnightblue" stroke="midnightblue" points="54.66,-17.64 44.07,-17.97 52.56,-24.32 54.66,-17.64"/>
</g>
<!-- Node5 -->
<g id="node5" class="node">
<title>Node5</title>
<g id="a_node5"><a xlink:title=" ">
<polygon fill="white" stroke="#bfbfbf" points="62,-0.5 62,-19.5 112,-19.5 112,-0.5 62,-0.5"/>
<text text-anchor="middle" x="87" y="-7.5" font-family="Helvetica,sans-Serif" font-size="10.00">stdio.h</text>
</a>
</g>
</g>
<!-- Node3&#45;&gt;Node5 -->
<g id="edge4" class="edge">
<title>Node3&#45;&gt;Node5</title>
<path fill="none" stroke="midnightblue" d="M175.97,-56.32C158.97,-47.66 132.62,-34.24 113.01,-24.25"/>
<polygon fill="midnightblue" stroke="midnightblue" points="114.49,-21.08 103.99,-19.65 111.31,-27.31 114.49,-21.08"/>
</g>
<!-- Node6 -->
<g id="node6" class="node">
<title>Node6</title>
<g id="a_node6"><a xlink:title=" ">
<polygon fill="white" stroke="#bfbfbf" points="130.5,-0.5 130.5,-19.5 183.5,-19.5 183.5,-0.5 130.5,-0.5"/>
<text text-anchor="middle" x="157" y="-7.5" font-family="Helvetica,sans-Serif" font-size="10.00">stdlib.h</text>
</a>
</g>
</g>
<!-- Node3&#45;&gt;Node6 -->
<g id="edge5" class="edge">
<title>Node3&#45;&gt;Node6</title>
<path fill="none" stroke="midnightblue" d="M187.06,-56.08C182.02,-48.53 174.66,-37.49 168.49,-28.23"/>
<polygon fill="midnightblue" stroke="midnightblue" points="171.29,-26.13 162.83,-19.75 165.47,-30.01 171.29,-26.13"/>
</g>
<!-- Node7 -->
<g id="node7" class="node">
<title>Node7</title>
<g id="a_node7"><a xlink:title=" ">
<polygon fill="white" stroke="#bfbfbf" points="201.5,-0.5 201.5,-19.5 258.5,-19.5 258.5,-0.5 201.5,-0.5"/>
<text text-anchor="middle" x="230" y="-7.5" font-family="Helvetica,sans-Serif" font-size="10.00">getopt.h</text>
</a>
</g>
</g>
<!-- Node3&#45;&gt;Node7 -->
<g id="edge6" class="edge">
<title>Node3&#45;&gt;Node7</title>
<path fill="none" stroke="midnightblue" d="M199.11,-56.08C204.28,-48.53 211.85,-37.49 218.19,-28.23"/>
<polygon fill="midnightblue" stroke="midnightblue" points="221.24,-29.98 224,-19.75 215.46,-26.02 221.24,-29.98"/>
</g>
<!-- Node8 -->
<g id="node8" class="node">
<title>Node8</title>
<g id="a_node8"><a xlink:title=" ">
<polygon fill="white" stroke="#bfbfbf" points="276.5,-0.5 276.5,-19.5 329.5,-19.5 329.5,-0.5 276.5,-0.5"/>
<text text-anchor="middle" x="303" y="-7.5" font-family="Helvetica,sans-Serif" font-size="10.00">string.h</text>
</a>
</g>
</g>
<!-- Node3&#45;&gt;Node8 -->
<g id="edge7" class="edge">
<title>Node3&#45;&gt;Node8</title>
<path fill="none" stroke="midnightblue" d="M210.67,-56.32C228.39,-47.62 255.9,-34.12 276.29,-24.11"/>
<polygon fill="midnightblue" stroke="midnightblue" points="277.94,-27.2 285.37,-19.65 274.85,-20.92 277.94,-27.2"/>
</g>
<!-- Node9 -->
<g id="node9" class="node">
<title>Node9</title>
<g id="a_node9"><a xlink:title=" ">
<polygon fill="white" stroke="#bfbfbf" points="347.5,-0.5 347.5,-19.5 398.5,-19.5 398.5,-0.5 347.5,-0.5"/>
<text text-anchor="middle" x="373" y="-7.5" font-family="Helvetica,sans-Serif" font-size="10.00">math.h</text>
</a>
</g>
</g>
<!-- Node3&#45;&gt;Node9 -->
<g id="edge8" class="edge">
<title>Node3&#45;&gt;Node9</title>
<path fill="none" stroke="midnightblue" d="M221.52,-56.44C252.87,-47.04 303.3,-31.91 337.26,-21.72"/>
<polygon fill="midnightblue" stroke="midnightblue" points="338.66,-24.95 347.24,-18.73 336.65,-18.25 338.66,-24.95"/>
</g>
</g>
</svg>
