<?xml version="1.0" encoding="UTF-8" standalone="no"?>
<!DOCTYPE svg PUBLIC "-//W3C//DTD SVG 1.1//EN"
 "http://www.w3.org/Graphics/SVG/1.1/DTD/svg11.dtd">
<!-- Generated by graphviz version 2.43.0 (0)
 -->
<!-- Title: ornament Pages: 1 -->
<svg width="489pt" height="124pt"
 viewBox="0.00 0.00 489.00 124.26" xmlns="http://www.w3.org/2000/svg" xmlns:xlink="http://www.w3.org/1999/xlink">
<g id="graph0" class="graph" transform="scale(1 1) rotate(0) translate(4 120.26)">
<title>ornament</title>
<polygon fill="white" stroke="transparent" points="-4,4 -4,-120.26 485,-120.26 485,4 -4,4"/>
<!-- Node1 -->
<g id="node1" class="node">
<title>Node1</title>
<g id="a_node1"><a xlink:title="Draws an ornament pattern on the given image.">
<polygon fill="#bfbfbf" stroke="black" points="0,-57.5 0,-76.5 64,-76.5 64,-57.5 0,-57.5"/>
<text text-anchor="middle" x="32" y="-64.5" font-family="Helvetica,sans-Serif" font-size="10.00">ornament</text>
</a>
</g>
</g>
<!-- Node2 -->
<g id="node2" class="node">
<title>Node2</title>
<g id="a_node2"><a xlink:href="drawing__handler_8c.html#ab0b50289af6a493dae78818783b1bc05" target="_top" xlink:title="Draws a circle ornament on the image.">
<polygon fill="white" stroke="black" points="266,-95.5 266,-114.5 361,-114.5 361,-95.5 266,-95.5"/>
<text text-anchor="middle" x="313.5" y="-102.5" font-family="Helvetica,sans-Serif" font-size="10.00">circle_ornament</text>
</a>
</g>
</g>
<!-- Node1&#45;&gt;Node2 -->
<g id="edge1" class="edge">
<title>Node1&#45;&gt;Node2</title>
<path fill="none" stroke="midnightblue" d="M45.47,-76.72C58.31,-86.06 79.31,-99.54 100,-105 151.35,-118.55 212.15,-116.86 255.53,-112.79"/>
<polygon fill="midnightblue" stroke="midnightblue" points="256.01,-116.25 265.61,-111.77 255.31,-109.29 256.01,-116.25"/>
</g>
<!-- Node4 -->
<g id="node4" class="node">
<title>Node4</title>
<g id="a_node4"><a xlink:href="preparation__handler_8c.html#ad9cc9d8449cd151d34b077c79f98a7de" target="_top" xlink:title="Processes color provided as a string and returns it as an integer array.">
<polygon fill="white" stroke="black" points="116,-76.5 116,-95.5 199,-95.5 199,-76.5 116,-76.5"/>
<text text-anchor="middle" x="157.5" y="-83.5" font-family="Helvetica,sans-Serif" font-size="10.00">process_color</text>
</a>
</g>
</g>
<!-- Node1&#45;&gt;Node4 -->
<g id="edge3" class="edge">
<title>Node1&#45;&gt;Node4</title>
<path fill="none" stroke="midnightblue" d="M64.16,-71.79C76.81,-73.74 91.76,-76.04 105.89,-78.21"/>
<polygon fill="midnightblue" stroke="midnightblue" points="105.58,-81.71 116,-79.77 106.65,-74.79 105.58,-81.71"/>
</g>
<!-- Node5 -->
<g id="node5" class="node">
<title>Node5</title>
<g id="a_node5"><a xlink:href="drawing__handler_8c.html#a82075957885db6d3ff359d07c7509a14" target="_top" xlink:title="Draws rectangle ornaments on the image.">
<polygon fill="white" stroke="black" points="100,-38.5 100,-57.5 215,-57.5 215,-38.5 100,-38.5"/>
<text text-anchor="middle" x="157.5" y="-45.5" font-family="Helvetica,sans-Serif" font-size="10.00">rectangle_ornament</text>
</a>
</g>
</g>
<!-- Node1&#45;&gt;Node5 -->
<g id="edge4" class="edge">
<title>Node1&#45;&gt;Node5</title>
<path fill="none" stroke="midnightblue" d="M64.16,-62.21C72.06,-60.99 80.84,-59.64 89.76,-58.27"/>
<polygon fill="midnightblue" stroke="midnightblue" points="90.5,-61.69 99.86,-56.71 89.44,-54.78 90.5,-61.69"/>
</g>
<!-- Node7 -->
<g id="node7" class="node">
<title>Node7</title>
<g id="a_node7"><a xlink:href="drawing__handler_8c.html#a9f70c4c4ca6fd269cc780f7d0074e350" target="_top" xlink:title="Draws semicircle ornaments on the image.">
<polygon fill="white" stroke="black" points="251,-0.5 251,-19.5 376,-19.5 376,-0.5 251,-0.5"/>
<text text-anchor="middle" x="313.5" y="-7.5" font-family="Helvetica,sans-Serif" font-size="10.00">semicircles_ornament</text>
</a>
</g>
</g>
<!-- Node1&#45;&gt;Node7 -->
<g id="edge7" class="edge">
<title>Node1&#45;&gt;Node7</title>
<path fill="none" stroke="midnightblue" d="M46.07,-57.33C59.04,-48.29 79.83,-35.3 100,-29 145.4,-14.83 198.72,-10.09 240.6,-8.89"/>
<polygon fill="midnightblue" stroke="midnightblue" points="240.79,-12.39 250.71,-8.67 240.63,-5.39 240.79,-12.39"/>
</g>
<!-- Node3 -->
<g id="node3" class="node">
<title>Node3</title>
<g id="a_node3"><a xlink:href="drawing__handler_8c.html#a8ea4fa7547fe4a58da4df99aaf430c7c" target="_top" xlink:title="Draws a single pixel with the specified color values.">
<polygon fill="white" stroke="black" points="412,-38.5 412,-57.5 481,-57.5 481,-38.5 412,-38.5"/>
<text text-anchor="middle" x="446.5" y="-45.5" font-family="Helvetica,sans-Serif" font-size="10.00">draw_pixel</text>
</a>
</g>
</g>
<!-- Node2&#45;&gt;Node3 -->
<g id="edge2" class="edge">
<title>Node2&#45;&gt;Node3</title>
<path fill="none" stroke="midnightblue" d="M336.43,-95.46C357.68,-86.21 390.14,-72.09 414.12,-61.65"/>
<polygon fill="midnightblue" stroke="midnightblue" points="415.73,-64.77 423.5,-57.57 412.94,-58.35 415.73,-64.77"/>
</g>
<!-- Node6 -->
<g id="node6" class="node">
<title>Node6</title>
<g id="a_node6"><a xlink:href="drawing__handler_8c.html#ab00e9a7968a0cc509da7053cba9cbd76" target="_top" xlink:title="Draws a border around the specified rectangle in the image.">
<polygon fill="white" stroke="black" points="275,-38.5 275,-57.5 352,-57.5 352,-38.5 275,-38.5"/>
<text text-anchor="middle" x="313.5" y="-45.5" font-family="Helvetica,sans-Serif" font-size="10.00">draw_border</text>
</a>
</g>
</g>
<!-- Node5&#45;&gt;Node6 -->
<g id="edge5" class="edge">
<title>Node5&#45;&gt;Node6</title>
<path fill="none" stroke="midnightblue" d="M215.41,-48C231.56,-48 248.98,-48 264.54,-48"/>
<polygon fill="midnightblue" stroke="midnightblue" points="264.98,-51.5 274.98,-48 264.98,-44.5 264.98,-51.5"/>
</g>
<!-- Node6&#45;&gt;Node3 -->
<g id="edge6" class="edge">
<title>Node6&#45;&gt;Node3</title>
<path fill="none" stroke="midnightblue" d="M352.04,-48C367.54,-48 385.62,-48 401.73,-48"/>
<polygon fill="midnightblue" stroke="midnightblue" points="401.98,-51.5 411.98,-48 401.98,-44.5 401.98,-51.5"/>
</g>
<!-- Node7&#45;&gt;Node3 -->
<g id="edge8" class="edge">
<title>Node7&#45;&gt;Node3</title>
<path fill="none" stroke="midnightblue" d="M347.56,-19.59C364.31,-24.45 384.86,-30.41 402.8,-35.61"/>
<polygon fill="midnightblue" stroke="midnightblue" points="401.87,-38.99 412.45,-38.41 403.82,-32.27 401.87,-38.99"/>
</g>
</g>
</svg>
