<?xml version="1.0" encoding="UTF-8" standalone="no"?>
<!DOCTYPE svg PUBLIC "-//W3C//DTD SVG 1.1//EN"
 "http://www.w3.org/Graphics/SVG/1.1/DTD/svg11.dtd">
<!-- Generated by graphviz version 2.43.0 (0)
 -->
<!-- Title: color_replace Pages: 1 -->
<svg width="209pt" height="66pt"
 viewBox="0.00 0.00 209.00 66.00" xmlns="http://www.w3.org/2000/svg" xmlns:xlink="http://www.w3.org/1999/xlink">
<g id="graph0" class="graph" transform="scale(1 1) rotate(0) translate(4 62)">
<title>color_replace</title>
<polygon fill="white" stroke="transparent" points="-4,4 -4,-62 205,-62 205,4 -4,4"/>
<!-- Node1 -->
<g id="node1" class="node">
<title>Node1</title>
<g id="a_node1"><a xlink:title="Replaces all pixels of the specified old color with the new color.">
<polygon fill="#bfbfbf" stroke="black" points="0,-19.5 0,-38.5 82,-38.5 82,-19.5 0,-19.5"/>
<text text-anchor="middle" x="41" y="-26.5" font-family="Helvetica,sans-Serif" font-size="10.00">color_replace</text>
</a>
</g>
</g>
<!-- Node2 -->
<g id="node2" class="node">
<title>Node2</title>
<g id="a_node2"><a xlink:href="drawing__handler_8c.html#a8ea4fa7547fe4a58da4df99aaf430c7c" target="_top" xlink:title="Draws a single pixel with the specified color values.">
<polygon fill="white" stroke="black" points="125,-38.5 125,-57.5 194,-57.5 194,-38.5 125,-38.5"/>
<text text-anchor="middle" x="159.5" y="-45.5" font-family="Helvetica,sans-Serif" font-size="10.00">draw_pixel</text>
</a>
</g>
</g>
<!-- Node1&#45;&gt;Node2 -->
<g id="edge1" class="edge">
<title>Node1&#45;&gt;Node2</title>
<path fill="none" stroke="midnightblue" d="M82.09,-35.54C92.67,-37.26 104.13,-39.13 114.88,-40.89"/>
<polygon fill="midnightblue" stroke="midnightblue" points="114.48,-44.37 124.92,-42.52 115.61,-37.46 114.48,-44.37"/>
</g>
<!-- Node3 -->
<g id="node3" class="node">
<title>Node3</title>
<g id="a_node3"><a xlink:href="preparation__handler_8c.html#ad9cc9d8449cd151d34b077c79f98a7de" target="_top" xlink:title="Processes color provided as a string and returns it as an integer array.">
<polygon fill="white" stroke="black" points="118,-0.5 118,-19.5 201,-19.5 201,-0.5 118,-0.5"/>
<text text-anchor="middle" x="159.5" y="-7.5" font-family="Helvetica,sans-Serif" font-size="10.00">process_color</text>
</a>
</g>
</g>
<!-- Node1&#45;&gt;Node3 -->
<g id="edge2" class="edge">
<title>Node1&#45;&gt;Node3</title>
<path fill="none" stroke="midnightblue" d="M82.09,-22.46C90.42,-21.1 99.29,-19.66 107.94,-18.25"/>
<polygon fill="midnightblue" stroke="midnightblue" points="108.63,-21.68 117.94,-16.62 107.5,-14.77 108.63,-21.68"/>
</g>
</g>
</svg>
