<?xml version="1.0" encoding="UTF-8" standalone="no"?>
<!DOCTYPE svg PUBLIC "-//W3C//DTD SVG 1.1//EN"
 "http://www.w3.org/Graphics/SVG/1.1/DTD/svg11.dtd">
<!-- Generated by graphviz version 2.43.0 (0)
 -->
<!-- Title: task_switcher Pages: 1 -->
<svg width="632pt" height="234pt"
 viewBox="0.00 0.00 632.00 233.85" xmlns="http://www.w3.org/2000/svg" xmlns:xlink="http://www.w3.org/1999/xlink">
<g id="graph0" class="graph" transform="scale(1 1) rotate(0) translate(4 229.85)">
<title>task_switcher</title>
<polygon fill="white" stroke="transparent" points="-4,4 -4,-229.85 628,-229.85 628,4 -4,4"/>
<!-- Node1 -->
<g id="node1" class="node">
<title>Node1</title>
<g id="a_node1"><a xlink:title="Handles task switching based on provided options.">
<polygon fill="#bfbfbf" stroke="black" points="0,-114.5 0,-133.5 84,-133.5 84,-114.5 0,-114.5"/>
<text text-anchor="middle" x="42" y="-121.5" font-family="Helvetica,sans-Serif" font-size="10.00">task_switcher</text>
</a>
</g>
</g>
<!-- Node2 -->
<g id="node2" class="node">
<title>Node2</title>
<g id="a_node2"><a xlink:href="task__handler_8c.html#a60e326633de7597f6de251833d489d7e" target="_top" xlink:title="Replaces all pixels of the specified old color with the new color.">
<polygon fill="white" stroke="black" points="122,-190.5 122,-209.5 204,-209.5 204,-190.5 122,-190.5"/>
<text text-anchor="middle" x="163" y="-197.5" font-family="Helvetica,sans-Serif" font-size="10.00">color_replace</text>
</a>
</g>
</g>
<!-- Node1&#45;&gt;Node2 -->
<g id="edge1" class="edge">
<title>Node1&#45;&gt;Node2</title>
<path fill="none" stroke="midnightblue" d="M54.46,-133.7C69.05,-145.76 95.33,-166.51 120,-181 122.99,-182.76 126.17,-184.46 129.39,-186.08"/>
<polygon fill="midnightblue" stroke="midnightblue" points="127.92,-189.26 138.45,-190.41 130.93,-182.94 127.92,-189.26"/>
</g>
<!-- Node5 -->
<g id="node5" class="node">
<title>Node5</title>
<g id="a_node5"><a xlink:href="task__handler_8c.html#a30ea9eb68d00a2f7776471808190028e" target="_top" xlink:title="Copies the specified area from the original image to a new structure, then copies it back to the orig...">
<polygon fill="white" stroke="black" points="129.5,-76.5 129.5,-95.5 196.5,-95.5 196.5,-76.5 129.5,-76.5"/>
<text text-anchor="middle" x="163" y="-83.5" font-family="Helvetica,sans-Serif" font-size="10.00">copy_area</text>
</a>
</g>
</g>
<!-- Node1&#45;&gt;Node5 -->
<g id="edge4" class="edge">
<title>Node1&#45;&gt;Node5</title>
<path fill="none" stroke="midnightblue" d="M73.03,-114.41C87.97,-109.64 106.22,-103.81 122.3,-98.68"/>
<polygon fill="midnightblue" stroke="midnightblue" points="123.52,-101.96 131.98,-95.59 121.39,-95.29 123.52,-101.96"/>
</g>
<!-- Node7 -->
<g id="node7" class="node">
<title>Node7</title>
<g id="a_node7"><a xlink:href="task__handler_8c.html#ac49a2b5090f3e5a87b40d45bd968c325" target="_top" xlink:title="Finds all filled rectangles in the image and draws borders around them.">
<polygon fill="white" stroke="black" points="128,-152.5 128,-171.5 198,-171.5 198,-152.5 128,-152.5"/>
<text text-anchor="middle" x="163" y="-159.5" font-family="Helvetica,sans-Serif" font-size="10.00">filled_rects</text>
</a>
</g>
</g>
<!-- Node1&#45;&gt;Node7 -->
<g id="edge6" class="edge">
<title>Node1&#45;&gt;Node7</title>
<path fill="none" stroke="midnightblue" d="M73.03,-133.59C87.97,-138.36 106.22,-144.19 122.3,-149.32"/>
<polygon fill="midnightblue" stroke="midnightblue" points="121.39,-152.71 131.98,-152.41 123.52,-146.04 121.39,-152.71"/>
</g>
<!-- Node9 -->
<g id="node9" class="node">
<title>Node9</title>
<g id="a_node9"><a xlink:href="task__handler_8c.html#a4036aae53bb53c722b7a288b0a63d7ac" target="_top" xlink:title="Draws an ornament pattern on the given image.">
<polygon fill="white" stroke="black" points="131,-114.5 131,-133.5 195,-133.5 195,-114.5 131,-114.5"/>
<text text-anchor="middle" x="163" y="-121.5" font-family="Helvetica,sans-Serif" font-size="10.00">ornament</text>
</a>
</g>
</g>
<!-- Node1&#45;&gt;Node9 -->
<g id="edge10" class="edge">
<title>Node1&#45;&gt;Node9</title>
<path fill="none" stroke="midnightblue" d="M84.29,-124C96.12,-124 109.03,-124 120.86,-124"/>
<polygon fill="midnightblue" stroke="midnightblue" points="120.92,-127.5 130.92,-124 120.92,-120.5 120.92,-127.5"/>
</g>
<!-- Node13 -->
<g id="node13" class="node">
<title>Node13</title>
<g id="a_node13"><a xlink:href="task__handler_8c.html#af4c732a598d00f62458fce659262b01f" target="_top" xlink:title="Prints information about a PNG image.">
<polygon fill="white" stroke="black" points="120,-38.5 120,-57.5 206,-57.5 206,-38.5 120,-38.5"/>
<text text-anchor="middle" x="163" y="-45.5" font-family="Helvetica,sans-Serif" font-size="10.00">print_png_info</text>
</a>
</g>
</g>
<!-- Node1&#45;&gt;Node13 -->
<g id="edge18" class="edge">
<title>Node1&#45;&gt;Node13</title>
<path fill="none" stroke="midnightblue" d="M54.46,-114.3C69.05,-102.24 95.33,-81.49 120,-67 122.99,-65.24 126.17,-63.54 129.39,-61.92"/>
<polygon fill="midnightblue" stroke="midnightblue" points="130.93,-65.06 138.45,-57.59 127.92,-58.74 130.93,-65.06"/>
</g>
<!-- Node3 -->
<g id="node3" class="node">
<title>Node3</title>
<g id="a_node3"><a xlink:href="drawing__handler_8c.html#a8ea4fa7547fe4a58da4df99aaf430c7c" target="_top" xlink:title="Draws a single pixel with the specified color values.">
<polygon fill="white" stroke="black" points="555,-95.5 555,-114.5 624,-114.5 624,-95.5 555,-95.5"/>
<text text-anchor="middle" x="589.5" y="-102.5" font-family="Helvetica,sans-Serif" font-size="10.00">draw_pixel</text>
</a>
</g>
</g>
<!-- Node2&#45;&gt;Node3 -->
<g id="edge2" class="edge">
<title>Node2&#45;&gt;Node3</title>
<path fill="none" stroke="midnightblue" d="M195.56,-209.51C209.63,-213.27 226.5,-217.14 242,-219 293.19,-225.14 307.69,-230.28 358,-219 440.27,-200.56 526.6,-147.28 566.23,-120.61"/>
<polygon fill="midnightblue" stroke="midnightblue" points="568.55,-123.26 574.83,-114.73 564.6,-117.48 568.55,-123.26"/>
</g>
<!-- Node4 -->
<g id="node4" class="node">
<title>Node4</title>
<g id="a_node4"><a xlink:href="preparation__handler_8c.html#ad9cc9d8449cd151d34b077c79f98a7de" target="_top" xlink:title="Processes color provided as a string and returns it as an integer array.">
<polygon fill="white" stroke="black" points="258.5,-190.5 258.5,-209.5 341.5,-209.5 341.5,-190.5 258.5,-190.5"/>
<text text-anchor="middle" x="300" y="-197.5" font-family="Helvetica,sans-Serif" font-size="10.00">process_color</text>
</a>
</g>
</g>
<!-- Node2&#45;&gt;Node4 -->
<g id="edge3" class="edge">
<title>Node2&#45;&gt;Node4</title>
<path fill="none" stroke="midnightblue" d="M204.14,-200C217.9,-200 233.48,-200 247.99,-200"/>
<polygon fill="midnightblue" stroke="midnightblue" points="248.32,-203.5 258.32,-200 248.32,-196.5 248.32,-203.5"/>
</g>
<!-- Node6 -->
<g id="node6" class="node">
<title>Node6</title>
<g id="a_node6"><a xlink:href="preparation__handler_8c.html#aba7666b4a097db12f975e6e955e61f22" target="_top" xlink:title="Processes coordinates provided as a string and returns them as an integer array.">
<polygon fill="white" stroke="black" points="242,-0.5 242,-19.5 358,-19.5 358,-0.5 242,-0.5"/>
<text text-anchor="middle" x="300" y="-7.5" font-family="Helvetica,sans-Serif" font-size="10.00">process_coordinates</text>
</a>
</g>
</g>
<!-- Node5&#45;&gt;Node6 -->
<g id="edge5" class="edge">
<title>Node5&#45;&gt;Node6</title>
<path fill="none" stroke="midnightblue" d="M188.68,-76.41C194.55,-73.7 200.66,-70.53 206,-67 224.12,-55.04 223.73,-45.72 242,-34 248.01,-30.14 254.75,-26.67 261.43,-23.64"/>
<polygon fill="midnightblue" stroke="midnightblue" points="263.25,-26.67 271.08,-19.53 260.5,-20.23 263.25,-26.67"/>
</g>
<!-- Node7&#45;&gt;Node4 -->
<g id="edge9" class="edge">
<title>Node7&#45;&gt;Node4</title>
<path fill="none" stroke="midnightblue" d="M198.07,-171.59C215.41,-176.47 236.7,-182.46 255.25,-187.68"/>
<polygon fill="midnightblue" stroke="midnightblue" points="254.37,-191.07 264.94,-190.41 256.27,-184.34 254.37,-191.07"/>
</g>
<!-- Node8 -->
<g id="node8" class="node">
<title>Node8</title>
<g id="a_node8"><a xlink:href="drawing__handler_8c.html#ab00e9a7968a0cc509da7053cba9cbd76" target="_top" xlink:title="Draws a border around the specified rectangle in the image.">
<polygon fill="white" stroke="black" points="418,-114.5 418,-133.5 495,-133.5 495,-114.5 418,-114.5"/>
<text text-anchor="middle" x="456.5" y="-121.5" font-family="Helvetica,sans-Serif" font-size="10.00">draw_border</text>
</a>
</g>
</g>
<!-- Node7&#45;&gt;Node8 -->
<g id="edge7" class="edge">
<title>Node7&#45;&gt;Node8</title>
<path fill="none" stroke="midnightblue" d="M198.11,-159.64C236.95,-156.73 302.25,-151.14 358,-143 374.24,-140.63 391.88,-137.39 407.63,-134.27"/>
<polygon fill="midnightblue" stroke="midnightblue" points="408.57,-137.65 417.67,-132.24 407.18,-130.79 408.57,-137.65"/>
</g>
<!-- Node8&#45;&gt;Node3 -->
<g id="edge8" class="edge">
<title>Node8&#45;&gt;Node3</title>
<path fill="none" stroke="midnightblue" d="M495.04,-118.56C510.54,-116.31 528.62,-113.68 544.73,-111.35"/>
<polygon fill="midnightblue" stroke="midnightblue" points="545.58,-114.76 554.98,-109.86 544.58,-107.83 545.58,-114.76"/>
</g>
<!-- Node9&#45;&gt;Node4 -->
<g id="edge13" class="edge">
<title>Node9&#45;&gt;Node4</title>
<path fill="none" stroke="midnightblue" d="M186.48,-133.55C192.87,-136.43 199.78,-139.7 206,-143 230.48,-155.97 257.35,-172.73 275.88,-184.71"/>
<polygon fill="midnightblue" stroke="midnightblue" points="274.22,-187.81 284.51,-190.34 278.05,-181.94 274.22,-187.81"/>
</g>
<!-- Node10 -->
<g id="node10" class="node">
<title>Node10</title>
<g id="a_node10"><a xlink:href="drawing__handler_8c.html#ab0b50289af6a493dae78818783b1bc05" target="_top" xlink:title="Draws a circle ornament on the image.">
<polygon fill="white" stroke="black" points="409,-38.5 409,-57.5 504,-57.5 504,-38.5 409,-38.5"/>
<text text-anchor="middle" x="456.5" y="-45.5" font-family="Helvetica,sans-Serif" font-size="10.00">circle_ornament</text>
</a>
</g>
</g>
<!-- Node9&#45;&gt;Node10 -->
<g id="edge11" class="edge">
<title>Node9&#45;&gt;Node10</title>
<path fill="none" stroke="midnightblue" d="M185.44,-114.49C192.06,-111.51 199.35,-108.16 206,-105 222.15,-97.31 225.03,-92.66 242,-87 293.62,-69.77 354.94,-59.57 398.6,-53.95"/>
<polygon fill="midnightblue" stroke="midnightblue" points="399.25,-57.39 408.74,-52.68 398.39,-50.45 399.25,-57.39"/>
</g>
<!-- Node11 -->
<g id="node11" class="node">
<title>Node11</title>
<g id="a_node11"><a xlink:href="drawing__handler_8c.html#a82075957885db6d3ff359d07c7509a14" target="_top" xlink:title="Draws rectangle ornaments on the image.">
<polygon fill="white" stroke="black" points="242.5,-114.5 242.5,-133.5 357.5,-133.5 357.5,-114.5 242.5,-114.5"/>
<text text-anchor="middle" x="300" y="-121.5" font-family="Helvetica,sans-Serif" font-size="10.00">rectangle_ornament</text>
</a>
</g>
</g>
<!-- Node9&#45;&gt;Node11 -->
<g id="edge14" class="edge">
<title>Node9&#45;&gt;Node11</title>
<path fill="none" stroke="midnightblue" d="M195.31,-124C206.37,-124 219.28,-124 232.15,-124"/>
<polygon fill="midnightblue" stroke="midnightblue" points="232.43,-127.5 242.43,-124 232.43,-120.5 232.43,-127.5"/>
</g>
<!-- Node12 -->
<g id="node12" class="node">
<title>Node12</title>
<g id="a_node12"><a xlink:href="drawing__handler_8c.html#a9f70c4c4ca6fd269cc780f7d0074e350" target="_top" xlink:title="Draws semicircle ornaments on the image.">
<polygon fill="white" stroke="black" points="394,-76.5 394,-95.5 519,-95.5 519,-76.5 394,-76.5"/>
<text text-anchor="middle" x="456.5" y="-83.5" font-family="Helvetica,sans-Serif" font-size="10.00">semicircles_ornament</text>
</a>
</g>
</g>
<!-- Node9&#45;&gt;Node12 -->
<g id="edge16" class="edge">
<title>Node9&#45;&gt;Node12</title>
<path fill="none" stroke="midnightblue" d="M195.28,-115.24C209.44,-111.57 226.46,-107.57 242,-105 288.98,-97.23 342.33,-92.48 383.95,-89.68"/>
<polygon fill="midnightblue" stroke="midnightblue" points="384.24,-93.16 393.99,-89.02 383.79,-86.18 384.24,-93.16"/>
</g>
<!-- Node10&#45;&gt;Node3 -->
<g id="edge12" class="edge">
<title>Node10&#45;&gt;Node3</title>
<path fill="none" stroke="midnightblue" d="M492.74,-57.56C501.44,-60.28 510.66,-63.48 519,-67 534.59,-73.59 551.26,-82.63 564.37,-90.24"/>
<polygon fill="midnightblue" stroke="midnightblue" points="562.82,-93.4 573.21,-95.47 566.39,-87.37 562.82,-93.4"/>
</g>
<!-- Node11&#45;&gt;Node8 -->
<g id="edge15" class="edge">
<title>Node11&#45;&gt;Node8</title>
<path fill="none" stroke="midnightblue" d="M357.65,-124C374.04,-124 391.77,-124 407.57,-124"/>
<polygon fill="midnightblue" stroke="midnightblue" points="407.64,-127.5 417.64,-124 407.64,-120.5 407.64,-127.5"/>
</g>
<!-- Node12&#45;&gt;Node3 -->
<g id="edge17" class="edge">
<title>Node12&#45;&gt;Node3</title>
<path fill="none" stroke="midnightblue" d="M519.16,-94.94C527.84,-96.2 536.61,-97.47 544.86,-98.67"/>
<polygon fill="midnightblue" stroke="midnightblue" points="544.58,-102.17 554.98,-100.14 545.59,-95.24 544.58,-102.17"/>
</g>
</g>
</svg>
