<?xml version="1.0" encoding="UTF-8" standalone="no"?>
<!DOCTYPE svg PUBLIC "-//W3C//DTD SVG 1.1//EN"
 "http://www.w3.org/Graphics/SVG/1.1/DTD/svg11.dtd">
<!-- Generated by graphviz version 2.43.0 (0)
 -->
<!-- Title: filled_rects Pages: 1 -->
<svg width="302pt" height="66pt"
 viewBox="0.00 0.00 302.00 66.00" xmlns="http://www.w3.org/2000/svg" xmlns:xlink="http://www.w3.org/1999/xlink">
<g id="graph0" class="graph" transform="scale(1 1) rotate(0) translate(4 62)">
<title>filled_rects</title>
<polygon fill="white" stroke="transparent" points="-4,4 -4,-62 298,-62 298,4 -4,4"/>
<!-- Node1 -->
<g id="node1" class="node">
<title>Node1</title>
<g id="a_node1"><a xlink:title="Finds all filled rectangles in the image and draws borders around them.">
<polygon fill="#bfbfbf" stroke="black" points="0,-19.5 0,-38.5 70,-38.5 70,-19.5 0,-19.5"/>
<text text-anchor="middle" x="35" y="-26.5" font-family="Helvetica,sans-Serif" font-size="10.00">filled_rects</text>
</a>
</g>
</g>
<!-- Node2 -->
<g id="node2" class="node">
<title>Node2</title>
<g id="a_node2"><a xlink:href="drawing__handler_8c.html#ab00e9a7968a0cc509da7053cba9cbd76" target="_top" xlink:title="Draws a border around the specified rectangle in the image.">
<polygon fill="white" stroke="black" points="109,-38.5 109,-57.5 186,-57.5 186,-38.5 109,-38.5"/>
<text text-anchor="middle" x="147.5" y="-45.5" font-family="Helvetica,sans-Serif" font-size="10.00">draw_border</text>
</a>
</g>
</g>
<!-- Node1&#45;&gt;Node2 -->
<g id="edge1" class="edge">
<title>Node1&#45;&gt;Node2</title>
<path fill="none" stroke="midnightblue" d="M70.06,-34.86C79.19,-36.43 89.23,-38.15 98.94,-39.82"/>
<polygon fill="midnightblue" stroke="midnightblue" points="98.45,-43.29 108.9,-41.53 99.64,-36.39 98.45,-43.29"/>
</g>
<!-- Node4 -->
<g id="node4" class="node">
<title>Node4</title>
<g id="a_node4"><a xlink:href="preparation__handler_8c.html#ad9cc9d8449cd151d34b077c79f98a7de" target="_top" xlink:title="Processes color provided as a string and returns it as an integer array.">
<polygon fill="white" stroke="black" points="106,-0.5 106,-19.5 189,-19.5 189,-0.5 106,-0.5"/>
<text text-anchor="middle" x="147.5" y="-7.5" font-family="Helvetica,sans-Serif" font-size="10.00">process_color</text>
</a>
</g>
</g>
<!-- Node1&#45;&gt;Node4 -->
<g id="edge3" class="edge">
<title>Node1&#45;&gt;Node4</title>
<path fill="none" stroke="midnightblue" d="M70.06,-23.14C78.17,-21.75 87,-20.23 95.68,-18.74"/>
<polygon fill="midnightblue" stroke="midnightblue" points="96.5,-22.15 105.76,-17.01 95.31,-15.25 96.5,-22.15"/>
</g>
<!-- Node3 -->
<g id="node3" class="node">
<title>Node3</title>
<g id="a_node3"><a xlink:href="drawing__handler_8c.html#a8ea4fa7547fe4a58da4df99aaf430c7c" target="_top" xlink:title="Draws a single pixel with the specified color values.">
<polygon fill="white" stroke="black" points="225,-38.5 225,-57.5 294,-57.5 294,-38.5 225,-38.5"/>
<text text-anchor="middle" x="259.5" y="-45.5" font-family="Helvetica,sans-Serif" font-size="10.00">draw_pixel</text>
</a>
</g>
</g>
<!-- Node2&#45;&gt;Node3 -->
<g id="edge2" class="edge">
<title>Node2&#45;&gt;Node3</title>
<path fill="none" stroke="midnightblue" d="M186.05,-48C195.28,-48 205.25,-48 214.74,-48"/>
<polygon fill="midnightblue" stroke="midnightblue" points="214.81,-51.5 224.81,-48 214.81,-44.5 214.81,-51.5"/>
</g>
</g>
</svg>
